<svg width="27" height="20" viewBox="0 0 27 20" fill="none" xmlns="http://www.w3.org/2000/svg">
<g clip-path="url(#clip0_3210_44815)">
<path d="M23.0231 19.206H3.56422C2.03944 19.206 0.798828 17.9654 0.798828 16.4406V12.8719C0.798828 12.5811 1.03452 12.345 1.3257 12.345C1.61689 12.345 1.85258 12.5811 1.85258 12.8719V16.4406C1.85258 17.3844 2.62041 18.1523 3.56422 18.1523H23.0231C23.9669 18.1523 24.7348 17.3841 24.7348 16.4406V3.52516C24.7348 2.58135 23.9666 1.81352 23.0231 1.81352H3.56422C2.62041 1.81352 1.85258 2.58135 1.85258 3.52516V12.8719C1.85258 13.1631 1.61689 13.3988 1.3257 13.3988C1.03452 13.3988 0.798828 13.1631 0.798828 12.8719V3.52516C0.798828 2.00038 2.03944 0.759766 3.56422 0.759766H23.0231C24.5479 0.759766 25.7885 2.00038 25.7885 3.52516V16.4406C25.7885 17.9654 24.5479 19.206 23.0231 19.206Z" fill="#73737B"/>
<path d="M0.798828 12.8719V16.4406C0.798828 17.9654 2.03944 19.206 3.56422 19.206H23.0231C24.5479 19.206 25.7885 17.9654 25.7885 16.4406V3.52516C25.7885 2.00038 24.5479 0.759766 23.0231 0.759766H3.56422C2.03944 0.759766 0.798828 2.00038 0.798828 3.52516V12.8719ZM0.798828 12.8719C0.798828 12.5811 1.03452 12.345 1.3257 12.345C1.61689 12.345 1.85258 12.5811 1.85258 12.8719M0.798828 12.8719C0.798828 13.1631 1.03452 13.3988 1.3257 13.3988C1.61689 13.3988 1.85258 13.1631 1.85258 12.8719M1.85258 12.8719V16.4406C1.85258 17.3844 2.62041 18.1523 3.56422 18.1523H23.0231C23.9669 18.1523 24.7348 17.3841 24.7348 16.4406V3.52516C24.7348 2.58135 23.9666 1.81352 23.0231 1.81352H3.56422C2.62041 1.81352 1.85258 2.58135 1.85258 3.52516V12.8719Z" stroke="#73737B"/>
<path d="M16.5609 9.98241L22.4359 4.59283C22.6501 4.39613 22.6645 4.06279 22.4682 3.84818C22.2715 3.63392 21.9385 3.61987 21.7239 3.81621L13.2925 11.5511L4.86178 3.81621C4.64717 3.61987 4.31419 3.63392 4.11713 3.84818C3.92043 4.06244 3.93484 4.39613 4.1491 4.59283L10.0241 9.98241L5.1491 14.3723C4.93484 14.5694 4.92043 14.9024 5.11713 15.1166C5.2211 15.2301 5.36301 15.2873 5.50562 15.2873C5.63277 15.2873 5.76062 15.2413 5.86178 15.1486L10.8035 10.6972L12.9363 12.654C13.0368 12.7464 13.1646 12.7928 13.2925 12.7928C13.4203 12.7928 13.5482 12.7464 13.6487 12.654L15.7818 10.6972L20.7239 15.1486C20.8251 15.2413 20.9526 15.2873 21.0801 15.2873C21.2223 15.2873 21.3646 15.2301 21.4682 15.1166C21.6649 14.9024 21.6505 14.569 21.4359 14.3723L16.5609 9.98241Z" fill="#73737B" stroke="#73737B"/>
</g>
<defs>
<clipPath id="clip0_3210_44815">
<rect width="27" height="20" fill="white"/>
</clipPath>
</defs>
</svg>
