<svg width="11" height="17" viewBox="0 0 11 17" fill="none" xmlns="http://www.w3.org/2000/svg">
<path d="M9.18587 9.375C8.64229 9.375 8.24675 8.95885 8.24675 8.5C8.24675 8.04115 8.64229 7.625 9.18587 7.625C9.72946 7.625 10.125 8.04115 10.125 8.5C10.125 8.95885 9.72946 9.375 9.18587 9.375ZM9.18587 2.375C8.64229 2.375 8.24675 1.95885 8.24675 1.5C8.24675 1.04115 8.64229 0.625 9.18587 0.625C9.72946 0.625 10.125 1.04115 10.125 1.5C10.125 1.95885 9.72946 2.375 9.18587 2.375ZM9.18587 16.375C8.64229 16.375 8.24675 15.9588 8.24675 15.5C8.24675 15.0412 8.64229 14.625 9.18587 14.625C9.72945 14.625 10.125 15.0412 10.125 15.5C10.125 15.9588 9.72945 16.375 9.18587 16.375ZM1.81413 9.375C1.27054 9.375 0.875 8.95885 0.875 8.5C0.875 8.04115 1.27054 7.625 1.81413 7.625C2.35771 7.625 2.75325 8.04115 2.75325 8.5C2.75325 8.95885 2.35771 9.375 1.81413 9.375ZM1.81413 2.375C1.27054 2.375 0.875 1.95885 0.875 1.5C0.875 1.04115 1.27054 0.625 1.81413 0.625C2.35771 0.625 2.75325 1.04115 2.75325 1.5C2.75325 1.95885 2.35771 2.375 1.81413 2.375ZM1.81413 16.375C1.27054 16.375 0.874999 15.9588 0.874999 15.5C0.874999 15.0412 1.27054 14.625 1.81413 14.625C2.35771 14.625 2.75325 15.0412 2.75325 15.5C2.75325 15.9588 2.35771 16.375 1.81413 16.375Z" fill="#FF4026" stroke="#FF4026" stroke-width="1.25"/>
</svg>
